<svg width="414" height="318" viewBox="0 0 414 318" fill="none" xmlns="http://www.w3.org/2000/svg">
<path d="M95.3272 220.075L127.381 169.685L55.5961 124.053L18.5248 182.332L77.8995 220.075H95.3272Z" fill="#F0F0F0"/>
<path d="M140.75 235.794H61.3524V219.817H140.75V235.794ZM62.3836 234.763H139.719V220.848H62.3836V234.763Z" fill="#3F3D56"/>
<path d="M130.954 232.959C133.801 232.959 136.11 230.652 136.11 227.805C136.11 224.959 133.801 222.652 130.954 222.652C128.107 222.652 125.798 224.959 125.798 227.805C125.798 230.652 128.107 232.959 130.954 232.959Z" fill="#0052CC"/>
<path d="M116.518 232.959C119.365 232.959 121.674 230.652 121.674 227.805C121.674 224.959 119.365 222.652 116.518 222.652C113.671 222.652 111.362 224.959 111.362 227.805C111.362 230.652 113.671 232.959 116.518 232.959Z" fill="#0052CC"/>
<path d="M102.082 232.959C104.93 232.959 107.238 230.652 107.238 227.805C107.238 224.959 104.93 222.652 102.082 222.652C99.2348 222.652 96.9265 224.959 96.9265 227.805C96.9265 230.652 99.2348 232.959 102.082 232.959Z" fill="#0052CC"/>
<path d="M87.6463 232.959C90.4937 232.959 92.802 230.652 92.802 227.805C92.802 224.959 90.4937 222.652 87.6463 222.652C84.7989 222.652 82.4907 224.959 82.4907 227.805C82.4907 230.652 84.7989 232.959 87.6463 232.959Z" fill="#0052CC"/>
<path d="M73.2105 232.959C76.0578 232.959 78.3661 230.652 78.3661 227.805C78.3661 224.959 76.0578 222.652 73.2105 222.652C70.3631 222.652 68.0548 224.959 68.0548 227.805C68.0548 230.652 70.3631 232.959 73.2105 232.959Z" fill="#0052CC"/>
<path d="M235.098 58.2399V19.0697H254.69V0H158.795V95.8639H240.77V86.491C240.77 84.7439 241.114 83.0138 241.783 81.3996C242.452 79.7854 243.432 78.3187 244.668 77.0832C245.904 75.8478 247.371 74.8678 248.986 74.1991C250.6 73.5305 252.331 73.1864 254.079 73.1864H254.69V58.2399H235.098Z" fill="#F0F0F0"/>
<path d="M341.305 247.391H277.375V260.791H341.305V247.391Z" fill="#0052CC"/>
<path d="M355.225 181.42H261.392V193.789H355.225V181.42Z" fill="#F0F0F0"/>
<path d="M401.111 316.969H0V318H401.111V316.969Z" fill="#3F3D56"/>
<path d="M371.304 318H254.079C250.413 317.996 246.9 316.538 244.308 313.948C241.716 311.357 240.258 307.844 240.254 304.18V86.4911C240.258 82.827 241.716 79.3143 244.308 76.7234C246.899 74.1325 250.413 72.6752 254.079 72.671H371.304C374.969 72.6752 378.483 74.1325 381.075 76.7234C383.666 79.3143 385.124 82.827 385.128 86.4911V304.18C385.124 307.844 383.666 311.357 381.074 313.948C378.483 316.538 374.969 317.996 371.304 318ZM254.079 73.7018C250.687 73.7056 247.435 75.0543 245.037 77.4519C242.638 79.8496 241.289 83.1003 241.285 86.4911V304.18C241.289 307.571 242.638 310.821 245.037 313.219C247.435 315.617 250.687 316.965 254.079 316.969H371.304C374.695 316.965 377.947 315.617 380.346 313.219C382.744 310.821 384.093 307.571 384.097 304.18V86.4911C384.093 83.1003 382.744 79.8496 380.346 77.4519C377.947 75.0543 374.695 73.7056 371.304 73.7018H254.079Z" fill="#3F3D56"/>
<path d="M298.771 82.9789C298.159 82.9789 297.561 82.7976 297.052 82.4578C296.544 82.118 296.147 81.635 295.913 81.07C295.679 80.5049 295.618 79.8831 295.737 79.2833C295.856 78.6834 296.151 78.1324 296.584 77.6999C297.016 77.2674 297.567 76.9729 298.167 76.8536C298.767 76.7343 299.389 76.7955 299.955 77.0296C300.52 77.2636 301.003 77.66 301.343 78.1685C301.683 78.677 301.864 79.2749 301.864 79.8865C301.863 80.7064 301.537 81.4925 300.957 82.0722C300.377 82.6519 299.591 82.978 298.771 82.9789ZM298.771 77.825C298.363 77.825 297.964 77.9459 297.625 78.1724C297.286 78.3989 297.022 78.7209 296.866 79.0976C296.71 79.4743 296.669 79.8888 296.748 80.2887C296.828 80.6887 297.024 81.056 297.313 81.3443C297.601 81.6326 297.969 81.829 298.369 81.9085C298.769 81.9881 299.183 81.9473 299.56 81.7912C299.937 81.6352 300.259 81.3709 300.486 81.0319C300.712 80.6929 300.833 80.2943 300.833 79.8865C300.833 79.34 300.615 78.8159 300.228 78.4294C299.842 78.0429 299.318 77.8255 298.771 77.825Z" fill="#3F3D56"/>
<path d="M329.189 79.3711H306.504V80.4019H329.189V79.3711Z" fill="#3F3D56"/>
<path d="M375.848 87.6175V128.849C364.909 128.849 354.419 124.505 346.684 116.772C338.949 109.04 334.603 98.5527 334.603 87.6175H375.848Z" fill="#0052CC"/>
<path d="M376.364 304.084H249.019V87.1021H376.364V304.084ZM250.05 303.054H375.333V88.1329H250.05V303.054Z" fill="#3F3D56"/>
<path opacity="0.1" d="M345.945 126.272C353.633 126.272 359.865 120.042 359.865 112.357C359.865 104.671 353.633 98.4409 345.945 98.4409C338.257 98.4409 332.025 104.671 332.025 112.357C332.025 120.042 338.257 126.272 345.945 126.272Z" fill="black"/>
<path d="M343.883 127.818C351.571 127.818 357.803 121.588 357.803 113.903C357.803 106.217 351.571 99.987 343.883 99.987C336.195 99.987 329.963 106.217 329.963 113.903C329.963 121.588 336.195 127.818 343.883 127.818Z" fill="#0052CC"/>
<path d="M274.281 95.8639H254.69V103.079H274.281V95.8639Z" fill="#3F3D56"/>
<path d="M285.108 164.412H265.517V171.627H285.108V164.412Z" fill="#3F3D56"/>
<path d="M360.381 191.212H265.517V177.812H360.381V191.212ZM266.548 190.182H359.35V178.843H266.548V190.182Z" fill="#3F3D56"/>
<path d="M355.225 220.59H261.392V232.959H355.225V220.59Z" fill="#F0F0F0"/>
<path d="M285.108 203.582H265.517V210.797H285.108V203.582Z" fill="#3F3D56"/>
<path d="M360.381 230.383H265.517V216.982H360.381V230.383ZM266.548 229.352H359.35V218.013H266.548V229.352Z" fill="#3F3D56"/>
<path d="M345.43 257.699H280.468V243.267H345.43V257.699ZM281.499 256.668H344.399V244.298H281.499V256.668Z" fill="#3F3D56"/>
<path d="M357.803 186.058C357.803 187.119 357.475 188.155 356.865 189.023C356.255 189.89 355.391 190.549 354.392 190.908C353.393 191.267 352.308 191.309 351.285 191.029C350.261 190.749 349.349 190.159 348.673 189.341L348.667 189.336C348.175 188.739 347.823 188.038 347.638 187.285C347.454 186.533 347.441 185.749 347.602 184.991C347.762 184.233 348.091 183.522 348.565 182.908C349.038 182.295 349.644 181.797 350.337 181.45C351.029 181.103 351.791 180.917 352.566 180.905C353.341 180.893 354.108 181.056 354.811 181.381C355.514 181.707 356.135 182.186 356.627 182.785C357.119 183.383 357.47 184.084 357.654 184.837C357.654 184.838 357.654 184.838 357.654 184.839C357.654 184.839 357.655 184.84 357.655 184.841C357.656 184.841 357.656 184.841 357.657 184.842C357.658 184.842 357.658 184.842 357.659 184.842C357.754 185.24 357.803 185.649 357.803 186.058Z" fill="#0052CC"/>
<path opacity="0.1" d="M357.803 186.058C357.803 187.119 357.475 188.155 356.865 189.023C356.255 189.891 355.391 190.549 354.392 190.908C353.393 191.267 352.308 191.31 351.285 191.029C350.261 190.749 349.349 190.159 348.673 189.341L348.667 189.336C348.572 188.938 348.524 188.53 348.523 188.12C348.523 187.059 348.851 186.024 349.461 185.156C350.072 184.288 350.935 183.629 351.934 183.27C352.933 182.911 354.018 182.869 355.042 183.149C356.065 183.43 356.978 184.019 357.654 184.837C357.654 184.838 357.654 184.838 357.654 184.839C357.654 184.839 357.655 184.84 357.655 184.841C357.656 184.841 357.656 184.841 357.657 184.842C357.657 184.842 357.658 184.842 357.659 184.842C357.754 185.24 357.803 185.649 357.803 186.058Z" fill="black"/>
<path d="M354.71 194.305C357.557 194.305 359.865 191.997 359.865 189.151C359.865 186.304 357.557 183.997 354.71 183.997C351.862 183.997 349.554 186.304 349.554 189.151C349.554 191.997 351.862 194.305 354.71 194.305Z" fill="#0052CC"/>
<path d="M357.803 225.229C357.803 226.29 357.475 227.325 356.865 228.193C356.255 229.061 355.391 229.719 354.392 230.078C353.393 230.437 352.308 230.48 351.285 230.199C350.261 229.919 349.349 229.33 348.673 228.512L348.667 228.506C348.175 227.909 347.823 227.208 347.638 226.456C347.454 225.703 347.441 224.919 347.602 224.161C347.762 223.404 348.091 222.692 348.565 222.079C349.038 221.466 349.644 220.967 350.337 220.62C351.029 220.273 351.791 220.087 352.566 220.075C353.341 220.063 354.108 220.226 354.811 220.552C355.514 220.877 356.135 221.357 356.627 221.955C357.119 222.553 357.47 223.255 357.654 224.007C357.654 224.008 357.654 224.008 357.654 224.009C357.654 224.01 357.655 224.01 357.655 224.011C357.656 224.011 357.656 224.012 357.657 224.012C357.658 224.012 357.658 224.012 357.659 224.012C357.754 224.411 357.803 224.819 357.803 225.229Z" fill="#0052CC"/>
<path opacity="0.1" d="M357.803 225.229C357.803 226.29 357.475 227.325 356.865 228.193C356.255 229.061 355.391 229.719 354.392 230.078C353.393 230.437 352.308 230.48 351.285 230.199C350.261 229.919 349.349 229.33 348.673 228.512L348.667 228.506C348.572 228.108 348.524 227.7 348.523 227.29C348.523 226.229 348.851 225.194 349.461 224.326C350.072 223.458 350.935 222.799 351.934 222.44C352.933 222.081 354.018 222.039 355.042 222.319C356.065 222.6 356.978 223.189 357.654 224.007C357.654 224.008 357.654 224.008 357.654 224.009C357.654 224.01 357.655 224.01 357.655 224.011C357.656 224.011 357.656 224.012 357.657 224.012C357.657 224.012 357.658 224.012 357.659 224.012C357.754 224.411 357.803 224.819 357.803 225.229Z" fill="black"/>
<path d="M354.71 233.475C357.557 233.475 359.865 231.167 359.865 228.321C359.865 225.474 357.557 223.167 354.71 223.167C351.862 223.167 349.554 225.474 349.554 228.321C349.554 231.167 351.862 233.475 354.71 233.475Z" fill="#0052CC"/>
<path d="M268.095 24.7391H241.285V51.5397H268.095V24.7391Z" fill="#F0F0F0"/>
<path d="M345.945 44.3242C344.722 44.3242 343.525 43.9614 342.508 43.2818C341.491 42.6022 340.698 41.6363 340.229 40.5062C339.761 39.3761 339.638 38.1325 339.877 36.9328C340.116 35.7331 340.705 34.6311 341.57 33.7661C342.436 32.9011 343.538 32.3121 344.738 32.0735C345.938 31.8348 347.182 31.9573 348.313 32.4254C349.443 32.8935 350.41 33.6862 351.089 34.7033C351.769 35.7204 352.132 36.9162 352.132 38.1394C352.13 39.7791 351.478 41.3512 350.318 42.5107C349.158 43.6701 347.585 44.3223 345.945 44.3242ZM345.945 32.9854C344.925 32.9854 343.929 33.2877 343.081 33.854C342.233 34.4203 341.572 35.2253 341.182 36.1671C340.792 37.1088 340.69 38.1451 340.889 39.1449C341.087 40.1446 341.579 41.063 342.3 41.7838C343.021 42.5046 343.939 42.9955 344.939 43.1943C345.939 43.3932 346.976 43.2911 347.918 42.901C348.86 42.5109 349.665 41.8503 350.232 41.0028C350.799 40.1552 351.101 39.1587 351.101 38.1394C351.099 36.7729 350.556 35.4629 349.589 34.4967C348.623 33.5305 347.312 32.987 345.945 32.9854Z" fill="#3F3D56"/>
<path d="M209.836 130.395H196.431V116.995H209.836V130.395ZM197.462 129.365H208.804V118.026H197.462V129.365Z" fill="#3F3D56"/>
<path d="M414 230.383H400.595V216.982H414V230.383ZM401.626 229.352H412.969V218.013H401.626V229.352Z" fill="#3F3D56"/>
<path d="M149.516 140.531L151.816 141.77L159.643 145.987L172.28 152.794L179.644 139.135C180.338 137.851 180.771 136.444 180.92 134.993C181.069 133.542 180.93 132.075 180.511 130.678C180.093 129.281 179.402 127.98 178.48 126.849C177.558 125.719 176.421 124.782 175.136 124.091C172.39 122.608 169.244 122.035 166.151 122.455C163.058 122.874 160.178 124.265 157.926 126.425L157.922 126.429C156.814 127.493 155.879 128.723 155.151 130.075L149.516 140.531Z" fill="#2F2E41"/>
<path d="M184.006 279.828L182.462 296.805L176.672 297.576L172.813 278.285L184.006 279.828Z" fill="#FFB8B8"/>
<path d="M175.129 297.577C175.129 297.577 182.462 293.718 184.006 296.805C184.006 296.805 182.848 306.065 187.48 307.223C192.111 308.38 194.041 316.483 187.48 317.254C180.918 318.026 176.672 315.711 174.357 315.711C172.041 315.711 174.357 307.608 174.357 307.608L175.129 297.577Z" fill="#2F2E41"/>
<path d="M137.304 279.828L138.848 296.805L144.637 297.576L148.497 278.285L137.304 279.828Z" fill="#FFB8B8"/>
<path d="M146.181 297.577C146.181 297.577 138.848 293.718 137.304 296.805C137.304 296.805 138.462 306.065 133.83 307.223C129.198 308.38 127.268 316.483 133.83 317.254C140.391 318.026 144.637 315.711 146.953 315.711C149.269 315.711 146.953 307.608 146.953 307.608L146.181 297.577Z" fill="#2F2E41"/>
<path d="M168.953 143.626C174.495 143.626 178.988 139.135 178.988 133.594C178.988 128.054 174.495 123.562 168.953 123.562C163.411 123.562 158.918 128.054 158.918 133.594C158.918 139.135 163.411 143.626 168.953 143.626Z" fill="#FFB8B8"/>
<path d="M136.918 153.272L145.023 166.005L154.672 165.233L170.497 166.391C170.497 166.391 171.991 163.404 173.21 160.499C173.878 159.048 174.392 157.531 174.743 155.973C175.129 153.272 169.725 150.571 169.725 150.571C169.725 150.571 169.513 150.533 169.158 150.448C168.687 150.336 167.961 150.151 167.166 149.88C165.371 149.271 163.214 148.237 162.778 146.713C162.006 144.012 167.795 140.153 167.795 140.153L160.848 133.594C160.848 133.594 154.676 142.164 147.181 144.116C146.746 144.231 146.305 144.321 145.861 144.386C145.837 144.39 145.818 144.394 145.795 144.398C137.69 145.555 136.918 153.272 136.918 153.272Z" fill="#FFB8B8"/>
<path d="M141.163 149.799L136.918 153.272C136.918 153.272 133.444 169.863 134.602 174.493C135.76 179.123 134.216 183.368 134.216 184.139C134.216 184.911 130.742 213.849 130.742 213.849C130.742 213.849 123.795 229.283 131.128 227.739C138.462 226.196 135.76 210.762 135.76 210.762L144.637 183.754V160.989L141.163 149.799Z" fill="#FFB8B8"/>
<path d="M171.655 152.886L174.743 155.201L176.286 187.612L187.865 215.392C187.865 215.392 196.357 228.897 190.953 229.283C185.55 229.669 182.076 215.392 182.076 215.392L171.655 188.769L170.111 162.918L171.655 152.886Z" fill="#FFB8B8"/>
<path d="M152.356 155.201C152.356 155.201 160.076 160.603 172.427 158.674C172.427 158.674 175.9 165.619 173.971 169.477C172.041 173.336 176.286 182.596 177.058 183.753C177.83 184.911 186.708 208.833 189.795 234.684C192.883 260.536 201.374 278.284 194.041 280.6C186.708 282.915 171.655 285.615 170.111 283.3C168.567 280.985 166.251 223.495 166.251 223.495L162.006 245.488C162.006 245.488 167.795 282.915 163.549 283.686C159.304 284.458 132.672 282.143 133.444 277.513C134.216 272.883 141.935 248.575 141.935 248.575C141.935 248.575 141.549 199.959 149.269 190.699C149.269 190.699 152.356 185.683 148.111 179.123C143.865 172.564 144.251 162.146 144.251 162.146C144.251 162.146 147.339 162.146 152.356 155.201Z" fill="#2F2E41"/>
<path d="M145.861 144.386L152.357 158.674L153.9 157.902L147.18 144.116L145.861 144.386Z" fill="#2F2E41"/>
<path d="M167.166 149.88L172.041 160.603L173.21 160.499L172.813 158.674L169.158 150.448C168.687 150.336 167.961 150.15 167.166 149.88Z" fill="#2F2E41"/>
<path d="M151.816 141.77C152.187 142.964 152.902 144.021 153.872 144.81C154.842 145.599 156.023 146.085 157.267 146.206C158.512 146.327 159.764 146.079 160.868 145.491C161.972 144.904 162.878 144.004 163.472 142.904C158.59 136.523 162.778 132.514 170.709 129.481C171.307 128.373 171.561 127.111 171.439 125.858C171.317 124.605 170.826 123.416 170.026 122.443C167.84 122.164 165.619 122.376 163.525 123.065C161.432 123.754 159.519 124.902 157.926 126.425L157.922 126.429L152.287 136.878C151.886 137.62 151.637 138.436 151.556 139.276C151.475 140.116 151.564 140.964 151.816 141.77Z" fill="#2F2E41"/>
<path d="M162.971 137.067C163.717 137.067 164.321 136.03 164.321 134.752C164.321 133.473 163.717 132.437 162.971 132.437C162.224 132.437 161.62 133.473 161.62 134.752C161.62 136.03 162.224 137.067 162.971 137.067Z" fill="#FFB8B8"/>
<path d="M166.996 130.974L178.598 136.229L180.725 131.538C180.359 129.823 179.592 128.219 178.486 126.857L170.501 123.242L166.996 130.974Z" fill="#2F2E41"/>
<path d="M194.884 234.506C197.732 234.506 200.04 232.198 200.04 229.352C200.04 226.505 197.732 224.198 194.884 224.198C192.037 224.198 189.729 226.505 189.729 229.352C189.729 232.198 192.037 234.506 194.884 234.506Z" fill="#0052CC"/>
<path d="M29.3649 265.144C31.2258 265.144 32.7343 263.636 32.7343 261.776C32.7343 259.916 31.2258 258.408 29.3649 258.408C27.504 258.408 25.9955 259.916 25.9955 261.776C25.9955 263.636 27.504 265.144 29.3649 265.144Z" fill="#FF6584"/>
<path d="M46.3882 279.331H45.357V317.682H46.3882V279.331Z" fill="#3F3D56"/>
<path d="M45.8727 284.754C48.869 284.754 51.2979 282.326 51.2979 279.331C51.2979 276.336 48.869 273.908 45.8727 273.908C42.8764 273.908 40.4475 276.336 40.4475 279.331C40.4475 282.326 42.8764 284.754 45.8727 284.754Z" fill="#3F3D56"/>
<path d="M45.8727 302.968C45.8727 302.968 45.0977 286.304 29.2095 288.241L45.8727 302.968Z" fill="#3F3D56"/></svg>
